<?xml version="1.0" encoding="utf-8"?>
<!-- Generator: Adobe Illustrator 25.2.1, SVG Export Plug-In . SVG Version: 6.00 Build 0)  -->
<svg version="1.1" id="Layer_1" xmlns="http://www.w3.org/2000/svg" xmlns:xlink="http://www.w3.org/1999/xlink" x="0px" y="0px"
	 viewBox="0 0 425 736" style="enable-background:new 0 0 425 736;" xml:space="preserve">
<style type="text/css">
	.st0{fill:none;stroke:#FAFFFF;stroke-width:2.25;}
</style>
<g>
	<path class="st0" d="M24,70.84c9.23,9.55-4.91,12.9-10.89,4.48C11.11,57.99,14.94,70.52,24,70.84z"/>
	<path class="st0" d="M57.86,177.66C51.47,174.68,62.85,173.75,57.86,177.66z"/>
	<path class="st0" d="M59.94,178.57C54.3,180.65,63.32,171.63,59.94,178.57z"/>
	<path class="st0" d="M56.2,176.95C63.28,184.88,63.11,188.25,56.2,176.95z"/>
	<path class="st0" d="M10.31,155.8C15,152.94,16.42,154.29,10.31,155.8z"/>
	<path class="st0" d="M15.31,154.5C13.81,153.97,21.13,154.38,15.31,154.5z"/>
	<path class="st0" d="M45.7,495.56C46.92,499.02,43.09,495.18,45.7,495.56z"/>
	<path class="st0" d="M49.35,31.16c8.96-8.82,8.7-0.06,5.46,6.93C45.79,39.91,51.2,35.99,49.35,31.16z"/>
	<path class="st0" d="M41.68,41.37C38.9,41.58,43.53,32.39,41.68,41.37z"/>
	<path class="st0" d="M36.22,41.89C39.53,50.28,27.34,50.72,36.22,41.89z"/>
	<path class="st0" d="M34.21,49.16C35.42,46.16,35.83,51.65,34.21,49.16z"/>
	<path class="st0" d="M38.3,57.88C40.22,60.05,36.14,60.08,38.3,57.88z"/>
	<path class="st0" d="M46.45,55.77c10.53-1.07-1.01,15.72-6.56,4.58c0.23-13.26,5.6,1.35,6.91-2.73
		C49.77,55.45,48.84,58.95,46.45,55.77z"/>
	<path class="st0" d="M45.12,55.88C49.67,58.08,39.3,55.32,45.12,55.88z"/>
	<path class="st0" d="M72.34,53.84c2.49-13.9,8.51,9.2-2.58,3.03c6.44-1.06-1.88-2.98-9.06-5.01c-9.67,9.29-6.3-10.87-11.01-5.21
		c-9.14-8.91,6.48-9.92,7.16-2.55c3.9,9.38,1.64-3.88,6.24-0.44C57.95,50.37,73.83,50,72.34,53.84z"/>
	<path class="st0" d="M90.17,109.04C95.22,112.93,85.41,109.41,90.17,109.04z"/>
	<path class="st0" d="M87.46,56.16C91.99,57.54,92.74,59.86,87.46,56.16z"/>
	<path class="st0" d="M128.21,82.17C130.05,84.16,126.36,83.16,128.21,82.17z"/>
	<path class="st0" d="M295.06,251.97C291.63,253.07,295.54,248.08,295.06,251.97z"/>
	<path class="st0" d="M39.39,288.62C40.92,288.68,42.73,297.27,39.39,288.62z"/>
	<path class="st0" d="M38.21,295.86C39.35,292.38,39.65,299.36,38.21,295.86z"/>
	<path class="st0" d="M41.43,321.37C38.06,317.74,42.35,318.6,41.43,321.37z"/>
	<path class="st0" d="M55.76,176.04c-7.67-12.65-23.98-21.55-36.69-22.86c-0.1-4.1,9.51-6.46,17.78-3.38
		c10.72,1.63,18.59,8.51,25.57,16.33c-6.23,0.2-17.47-14.74-10.33-4.42c6.58,8.54,12.66,10.14,3.57,14.13L55.76,176.04z"/>
	<path class="st0" d="M35.74,302.92C32.45,300.16,38.45,300.79,35.74,302.92z"/>
	<path class="st0" d="M109.81,57.65C111.64,59.04,107.46,58.54,109.81,57.65z"/>
	<path class="st0" d="M85.56,107.26C82.98,100.43,88.64,106.45,85.56,107.26z"/>
	<path class="st0" d="M132.26,81.83C125.5,75.46,140.79,86.41,132.26,81.83z"/>
	<path class="st0" d="M49.85,52.55C52.42,59.36,46.18,48.86,49.85,52.55z"/>
	<path class="st0" d="M34.78,58.63C30.51,65.73,34.88,45.63,34.78,58.63z"/>
	<path class="st0" d="M39.4,59.95C41.43,62.65,35.98,60.58,39.4,59.95z"/>
	<path class="st0" d="M46.59,544.91c-7.48-8.73,0.85,2.12,0-4.41c2.29,8.04,1.8-1.01,5.5-3.24c-2-14.07-7.29-28.11-9.22-41.71
		c1.49,3.14,3.36,18.68,6.91,18.52c2.68-1.67,2.63-4.39,1.44-11.64c-6.91-7.27-5.6-7.74-4.51-19.83
		c-1.98-20.16-10.15-39.43-9.87-59.89c5.77-6.89,0.89-19.14,0.2-27.83c-3.59-19.01-9.82-37.57-14.62-56.14
		c0.59-9.11-1.98-19.14-1.34-27.33c0.76,3.32,7.98-4.73,9.54-13.86c2.56-4.79,6.99-25.18,4.9-11.27
		c-3.34,6.82-4.57,16.18-3.68,15.23c-1.07,4.14-8.27,9.84,3.26,1.52c-0.32,9.29-8.81,7.48-5.47,17.19
		c-3.13,5.28-5.38,14.76,1.36,18.88c-5.55,5.07-2.58,17.19,7.84,15.77c7.52-0.07,1.43,7.87,5.03,10.27
		c-2.22-8.51,2.41-13.72,0.09-20.53c-9.98-8.57-4.17-6.5-0.85-16.23c5.35-3.03-2.96-19.64-3.76-18.3
		c-2.3-1.05,6.96-10.25,6.25-17.76c4.65-6.59-2.27-18.57,5.25-24c-2.05-11.1,2.37-16.35,9.95-20.05c1.29-8.89,6.97-15.38,5.9-25.09
		c4.97-8.95-9.06-16.66-5.4-25.86c1.3-10.11,4.17-12.2-1.83-18.22c8.52-0.54,12.41-8.66,18.68-12.47
		c7.38-1.49,10.68-12.73,11.22-20.65c3.85-8.18,7.96-14.38,7.2-22.58c3.39-9.71-3.59-13.83-9.56-18.27
		c-7.05-10.15,7.32-12.55,14.4-16.98c8.95-5.62,8.45-13.75-0.6-19.4c-5.54-4.62-23.96-16.1-8.6-9.29
		c5.25,0.67,15.64,15.01,19.08,5.1c-3.49,3.94,4.62,6.23,11.33,9.94c8.4,4.52-9.9-0.64,3.16,6.35c-14.37-1.88,1.63,5.38,4.22,3.5
		c0.96,3.65,5.11-3.49,12.11-3.04c7.38-7.44,7.4-6.94-0.16-11.39c-9.95-10.22-23.4-17.63-36.76-22.34
		c-3.77,3.49,7.86,10.82,6.44,14.91c-4.73-5.05-17.92-14.38-22.02-13.82c9.04,6.81,11.32,10.96-0.67,2.67
		c-9.28,0.09-13.18-9.12-18.16-10.18c-0.84-14.55,0.58,4.41-6.95-2.5c-3.02-7.95-8.04-12.02,2.3-16.51
		c10.88-3.46,13.78-5.89,22.42-3.27c9.07,1.06,17.85-4.47,27.01-3.72c9.71,0.88,9.94,14.43,16.88,20.31
		c13.43,18.18,33.57,30.05,50.53,44.72c10.27,5.37,11.88,12.57,19.45,18.82c12.43,13.16-13.1-15.13-1.93-4.52
		c10.45,11.55,26.38,19.1,29.18,35.96c3.69,14.49,13.47,26.34,20.33,39.4c-4.98-3.38-16.54-16.27-14.76-5.59
		c8.05,4.95,5.69,2.12,8.55,8.97c-8.01,0.31-2.45,8.41,2.48,7.74c2.38-5.49,3.81-14.66,10.91-1.23c2.53,8.56,12.96,12.75,15.62,17
		c4.65,11.82,16.41,17.47,20.29,29.8c5.94,5.42,3.41,18.43,6.59,19.88c-0.87,13.86-0.34-2.3-5.68,1.07
		c5.82-5.93-7.84,0.55-0.23,1.94c-5.02,2.98,5.97,6.36-2.49,8.45c-0.68-7.69-7.42-6.38-12.85,0c3.05,6.37,13.63-7.27,14.88,7.19
		c10.32,3.44,3.58,1.65,13.59,0.75c-1.16-8.93,9.34-14.35,13.77-4.17c1.14,9.36,6.19,18.74,6.14,27.32
		c1.95,10.15,4.77,21.92,7.95,30.72c2.76,9.99,5.99,12.25,7.11,22.81c1.45,12.13,17.99,7.05,12.84,15.39
		c0.65,8.17-12.39,10.48,1.62,5.12c7.63-1.66,0.34,5.53,3.71,13.04c5.95,7.73,11.17,9.82,18.11,17.76
		c8.38,2.13,11.36,14.74,16.62,21.86c8.81,14.36,7.05,32.4,14.89,46.84c9.61,21.43-3.8,45.23,5.85,66.8
		c-1.85,9.25-6.98,18.41-5.95,27.45c-3.11,6.42-4.23,13.29-4.64,20.91c-4.88,7.96-8.43,16.03-9.78,24.64
		c-1.79,8.91-9.9,13.21-9.29,18.27c-4.25,7.84-11.38,12.63-18.03,17.57c-3.04,7.22-11.92,10.63-20.05,13.54
		c-1.61,8.45-13.12,8.44-17.42,16.67c-6.82,4.46-12.52,6.63-16.92,11.11c-9.66,1.65-17.16,5.39-25.79,9.05
		c-7.18,4.72-12.22,3.96-13.53,6.14c-1.84,0.74-17.04,1.11-23.47,5.14c-7.94,1.12-15.66,6.6-22.82,7.66
		c-7.57,0.88-13.32,8.96-18.17,10.31c-2.8,2.86-3.46,6.29-9.57,4.54c-8.48,1.25-12.14,4.86-18.88,7.76
		c-3.64-8.68-16.07,0.17-22.88-4.54c-1.09-5.38-6.69-2.45-15.71-4.09c-7.38-5.33-19.3-3.94-24.59-9.16c1.36-5.75-6.12,1.1-11-8.18
		c-8.19-5.04-12.65-12.09-16.66-20.01c-5.8-7-7.61-17.16-9.7-25.74c-2.24-9.76-6.04-19.42-9.93-28.5
		c3.82-7.57-2.93-17.63-5.25-26.45c-7.42-16.55-14.89-33.32-16.99-51.49C47.86,549.56,47.22,547.24,46.59,544.91z"/>
	<path class="st0" d="M105.26,50.45C106.55,47.87,107.53,51.19,105.26,50.45z"/>
</g>
</svg>
